HIERARCHY
ROOT Hips
{
    OFFSET 0.000000 0.000000 0.000000
    CHANNELS 6 Xposition Yposition Zposition Zrotation Yrotation Xrotation
    JOINT LeftUpLeg
    {
        OFFSET 1.363060 -1.794630 0.839290
        CHANNELS 3 Zrotation Yrotation Xrotation
        JOINT LeftLeg
        {
            OFFSET 2.448110 -6.726130 0.000000
            CHANNELS 3 Zrotation Yrotation Xrotation
            JOINT LeftFoot
            {
                OFFSET 2.562200 -7.039589 0.000000
                CHANNELS 3 Zrotation Yrotation Xrotation
                JOINT LeftToeBase
                {
                    OFFSET 0.157640 -0.433110 2.322550
                    CHANNELS 3 Zrotation Yrotation Xrotation
                    End Site
                    {
                        OFFSET 0.000000 0.000000 0.000000
                    }
                }
            }
        }
    }
    JOINT RightUpLeg
    {
        OFFSET -1.305520 -1.794630 0.839290
        CHANNELS 3 Zrotation Yrotation Xrotation
        JOINT RightLeg
        {
            OFFSET -2.542530 -6.985549 0.000000
            CHANNELS 3 Zrotation Yrotation Xrotation
            JOINT RightFoot
            {
                OFFSET -2.568260 -7.056230 0.000000
                CHANNELS 3 Zrotation Yrotation Xrotation
                JOINT RightToeBase
                {
                    OFFSET -0.164730 -0.452590 2.363150
                    CHANNELS 3 Zrotation Yrotation Xrotation
                    End Site
                    {
                        OFFSET 0.000000 0.000000 0.000000
                    }
                }
            }
        }
    }
    JOINT Spine
    {
        OFFSET 0.028270 2.035590 -0.193380
        CHANNELS 3 Zrotation Yrotation Xrotation
        JOINT Spine1
        {
            OFFSET 0.056720 2.048850 -0.042750
            CHANNELS 3 Zrotation Yrotation Xrotation
            JOINT Neck1
            {
                OFFSET -0.054170 1.746240 0.172020
                CHANNELS 3 Zrotation Yrotation Xrotation
                JOINT Head
                {
                    OFFSET 0.104070 1.761360 -0.123970
                    CHANNELS 3 Zrotation Yrotation Xrotation
                    End Site
                    {
                        OFFSET 0.000000 0.000000 0.000000
                    }
                }
            }
            JOINT LeftShoulder
            {
                OFFSET 0.000000 0.000000 0.000000
                CHANNELS 3 Zrotation Yrotation Xrotation
                JOINT LeftArm
                {
                    OFFSET 3.362410 1.200890 -0.311210
                    CHANNELS 3 Zrotation Yrotation Xrotation
                    JOINT LeftForeArm
                    {
                        OFFSET 4.983000 -0.000000 -0.000000
                        CHANNELS 3 Zrotation Yrotation Xrotation
                        JOINT LeftHand
                        {
                            OFFSET 3.483560 -0.000000 -0.000000
                            CHANNELS 3 Zrotation Yrotation Xrotation
                            End Site
                            {
                                OFFSET 0.000000 0.000000 0.000000
                            }
                        }
                    }
                }
            }
            JOINT RightShoulder
            {
                OFFSET 0.000000 0.000000 0.000000
                CHANNELS 3 Zrotation Yrotation Xrotation
                JOINT RightArm
                {
                    OFFSET -3.136600 1.374050 -0.404650
                    CHANNELS 3 Zrotation Yrotation Xrotation
                    JOINT RightForeArm
                    {
                        OFFSET -5.241900 -0.000000 -0.000000
                        CHANNELS 3 Zrotation Yrotation Xrotation
                        JOINT RightHand
                        {
                            OFFSET -3.444170 -0.000000 -0.000000
                            CHANNELS 3 Zrotation Yrotation Xrotation
                            End Site
                            {
                                OFFSET 0.000000 0.000000 0.000000
                            }
                        }
                    }
                }
            }
        }
    }
}
MOTION
Frames: 13
Frame Time: 0.016667
25.839720 18.131437 9.153686 -0.195092 -6.734194 10.850622 -13.287978 -2.191043 -18.296694 -31.145544 -38.808891 56.116646 -31.813185 60.640018 -33.087101 -0.165039 0.018614 -1.100973 6.400692 4.430666 -18.578596 32.145947 35.698280 58.839458 38.469563 -54.435623 -39.650379 -0.046752 -0.134327 -2.952254 3.370316 0.372934 -2.182778 -2.593935 0.194015 -0.479459 5.495532 -0.511612 17.511892 -3.579633 1.360736 -14.702864 -7.475972 -14.134786 -0.091282 -84.706635 -18.593321 50.444176 15.873407 -13.295413 -5.388175 4.331432 -4.713078 -1.179390 7.920712 14.154402 4.786724 75.209221 22.079111 31.703815 -1.884306 18.412584 24.786848 -4.181694 1.954773 24.031244 
25.869707 18.210623 9.186419 -0.326599 -5.657408 10.725703 -12.806201 -4.226879 -16.916933 -28.455564 -37.952366 52.540287 -30.429461 61.045826 -30.145235 -0.316430 -1.350484 -1.068720 6.609865 3.936445 -17.827938 29.244291 34.768604 55.533497 39.226109 -53.904472 -38.320904 -0.055143 -0.164727 -3.046023 3.577559 0.235013 -2.251689 -2.761722 0.099644 -0.709564 5.630648 -0.722128 17.789143 -3.121454 1.092244 -14.891703 -6.372659 -14.370491 -0.509703 -86.535141 -19.232262 48.893341 17.629860 -18.293728 -6.618000 4.688860 -4.391507 -0.248261 6.562304 14.215080 4.389162 77.594292 23.445581 31.051329 -2.246002 24.482525 22.317333 -6.237131 2.196269 21.313169 
25.889799 18.228046 9.201648 -0.285712 -5.375668 11.054832 -13.285232 -3.266634 -17.401628 -29.024698 -39.242805 53.502010 -31.376869 60.864063 -30.600962 -0.285912 -1.142791 -1.020959 6.310099 4.885700 -17.741724 28.113045 33.705288 54.000053 40.169563 -54.311333 -38.890896 -0.332026 -1.157460 -1.707276 3.361029 0.489288 -2.533132 -2.914164 0.208256 -1.191069 5.804543 -0.943270 17.995939 -2.597959 0.872691 -14.669843 -4.734631 -14.314175 -0.842345 -87.573616 -20.133932 46.996944 18.685949 -24.315825 -7.629028 4.592191 -3.944156 1.315187 4.574329 14.276994 3.680101 80.085068 24.612730 31.503897 -2.237672 30.751028 18.574907 -5.642957 2.336152 17.588833 
25.908344 18.207182 9.225795 -0.331663 -4.805107 10.891816 -13.783191 -2.216313 -17.424200 -32.314285 -41.712852 57.401108 -33.291145 62.844566 -33.524284 -0.312794 -1.508249 -0.912292 5.922189 6.309927 -16.857607 28.257401 32.837669 53.271984 40.585293 -55.964092 -40.338593 -0.237847 -0.826617 -1.945868 3.254869 0.549208 -2.356299 -3.032474 0.215539 -1.911381 6.022981 -1.222161 18.471146 -2.389425 0.570741 -14.702231 -2.794326 -13.914804 -1.370240 -88.285004 -20.764797 45.811348 19.101145 -30.442202 -8.882545 3.111785 -2.861674 2.857327 2.357771 13.817565 3.099352 81.767265 26.098499 30.290834 0.776596 37.586761 16.326609 -6.810376 2.582054 13.198888 
25.931341 18.148125 9.254527 -0.388588 -4.474057 10.605469 -14.346762 -0.814421 -17.498219 -37.441994 -44.324104 63.352505 -37.296463 64.317787 -39.469128 -0.121878 -0.426474 -0.467583 5.850128 6.781198 -16.388760 28.262291 32.029125 53.340191 42.226643 -55.109562 -42.893764 -0.084199 -0.274008 -2.691594 3.185004 0.684902 -2.124023 -3.176155 0.260298 -2.721406 6.201797 -1.670239 19.099669 -2.356924 0.147885 -14.700145 -0.782339 -13.456067 -1.935189 -88.503784 -21.577814 45.057072 18.666079 -36.268295 -8.532269 0.201265 -2.611401 5.343840 0.021302 13.403241 2.572206 82.891846 27.261072 29.230082 5.026485 44.545803 18.153168 -6.186656 3.513640 11.809892 
25.941874 18.027077 9.267158 -0.859795 -3.837500 10.964296 -14.737385 1.295905 -18.895224 -46.177773 -46.790627 73.505013 -42.178364 67.327560 -47.163670 -0.060125 -0.154731 -0.272611 6.138096 7.438278 -16.528299 28.114359 30.895050 53.050125 42.559170 -54.668018 -44.916294 0.028132 0.160238 -3.871381 3.340268 0.648472 -2.366283 -2.968391 0.239332 -3.683640 6.208513 -2.195191 19.822388 -2.375205 -0.348931 -14.905006 1.842825 -12.928229 -2.820198 -88.376991 -22.049759 44.755936 21.516380 -42.889877 -13.931747 4.609906 -2.215515 3.808114 -2.501455 12.891077 2.232200 83.107132 28.987228 25.527472 13.914487 50.949116 26.094358 -6.789731 2.730210 11.802414 
25.963390 17.897087 9.292841 -0.931554 -3.480958 10.660498 -15.187669 2.293478 -18.744106 -51.402840 -47.687054 79.305115 -46.391762 70.041443 -54.194187 -0.028525 -1.331748 0.966095 6.309423 6.731135 -16.657738 27.782230 29.686796 53.247948 40.497169 -53.878822 -44.665024 -0.153594 -0.521742 -1.274886 3.266684 0.612596 -2.235749 -2.960974 0.218031 -4.428494 6.101582 -2.747027 20.667744 -2.255001 -0.849544 -14.986840 3.875755 -12.425426 -3.457355 -87.779045 -22.444666 46.410782 25.932646 -48.272614 -20.416454 2.821697 -1.514856 3.924333 -4.602942 12.463394 1.979958 82.441513 30.671133 20.567295 27.124706 55.421665 41.397354 -7.642789 1.944714 13.465661 
25.986876 17.793692 9.336941 -0.539433 -3.449544 9.407005 -15.627420 2.547377 -16.826048 -48.923840 -47.673344 76.716225 -45.079365 68.190361 -54.585941 0.000079 -1.767890 1.595296 5.771175 6.439969 -15.343579 27.995729 28.826717 53.327976 40.413258 -53.032322 -46.120518 -0.084971 -0.277376 -2.537145 2.733253 0.687583 -1.386714 -2.873026 0.287695 -5.259352 5.896318 -3.314867 21.706095 -2.543615 -1.363385 -15.120605 5.784173 -11.971530 -3.966043 -87.030685 -22.626251 48.847824 33.497684 -52.379230 -32.367249 2.209867 -0.198354 2.739771 -6.480143 12.176416 1.618897 81.179909 31.406334 15.020972 43.011292 57.589268 65.093651 -7.638836 -0.043154 16.108278 
26.004173 17.663136 9.365734 -0.510037 -3.180453 8.964053 -15.684669 2.375973 -16.049612 -53.932266 -48.176590 81.864410 -50.871986 70.704010 -62.539986 0.151655 -1.736412 2.665295 5.764111 4.895883 -15.418184 26.496132 27.145830 52.428463 38.254185 -50.222038 -44.404083 -0.042110 -0.123935 -2.178322 2.536256 0.678092 -1.161858 -2.675907 0.297797 -5.943908 5.503569 -3.809454 22.458118 -2.639590 -1.808545 -15.150494 7.553434 -11.598783 -4.266926 -85.953453 -22.947865 50.462776 44.237457 -55.871643 -49.171562 4.333635 -1.285189 2.419593 -8.098256 11.899382 1.340209 79.451759 32.157673 12.985193 54.766701 60.680527 90.940178 -8.392241 -1.108302 18.879173 
26.014097 17.568340 9.384964 -0.626056 -2.610723 8.650783 -15.479933 2.144488 -15.366826 -56.975414 -48.662193 84.949158 -54.719685 71.191193 -66.904572 0.229369 -0.790744 2.246385 6.031624 2.403033 -15.963788 26.353439 26.688183 52.983189 36.747719 -48.325378 -43.287388 -0.134086 -0.452018 -0.694682 1.819821 1.097969 -0.960422 -1.545342 0.572746 -5.485976 5.580080 -4.177337 21.743254 -2.690038 -2.350202 -14.442476 9.094945 -12.034738 -4.662147 -85.491318 -23.813858 49.095207 52.747513 -60.079704 -69.261864 4.039098 -0.676578 2.303373 -9.147623 13.049589 2.817530 73.721756 31.750996 19.747395 74.021271 76.827644 112.470169 -7.063837 -5.455830 20.881790 
26.020138 17.542091 9.400735 -0.458562 -2.754145 8.148653 -15.551683 2.029102 -14.568739 -59.594494 -48.788441 87.468025 -60.419914 72.672218 -73.054939 0.121723 -1.332518 2.033002 5.972486 0.532214 -16.372103 28.002897 27.638670 55.283497 37.977566 -47.405125 -44.184208 0.200399 0.791433 -3.198775 2.307862 0.876182 -1.210636 -2.636778 0.420941 -4.639150 4.883922 -4.943394 22.278851 -3.031375 -2.918553 -14.534117 9.899436 -12.418863 -2.541105 -82.028656 -24.206200 39.355682 63.360210 -69.917557 -87.687943 4.239430 1.974297 2.173220 -10.378785 12.826792 0.060447 74.718094 31.832275 40.718678 -62.163902 79.832329 -48.588840 -9.982033 -1.322751 21.653500 
26.013136 17.585567 9.414822 -0.561959 -2.480420 8.630910 -14.825536 -0.145359 -14.083951 -49.251957 -47.818676 76.208130 -48.871140 68.964104 -59.675896 0.051739 -1.429268 1.631363 6.249671 -0.740125 -17.668280 33.981422 30.619715 61.149620 40.874588 -51.291367 -48.726021 0.093640 0.366512 -2.203317 2.280006 1.236171 -0.505754 -2.756131 0.640620 -5.291765 4.936764 -5.335765 21.349604 -3.428587 -3.447339 -14.563678 10.727773 -10.479574 -0.584593 -81.137085 -26.546034 12.057436 -72.709808 -79.890068 82.059967 7.099478 2.274741 2.075322 -11.251628 10.440355 -0.842482 74.494789 31.784382 34.662064 -56.089325 86.762329 -41.095432 -11.480146 -1.976168 21.350405 
26.003374 17.679609 9.437109 -0.906594 -2.153129 9.036024 -14.413486 -0.178693 -14.184884 -45.091293 -47.984715 71.841988 -45.047894 67.029076 -53.337574 -0.007429 -1.514544 1.291075 6.860185 -2.180633 -18.702982 37.323055 32.469353 64.440018 42.813278 -52.854275 -50.210136 0.138774 0.561447 -3.208615 2.194660 1.519744 -0.889488 -2.231989 0.812004 -5.860864 4.465040 -5.956217 22.069107 -3.338778 -4.020414 -14.242478 11.651113 -9.574466 -2.117477 -82.405930 -24.923222 15.896417 -63.835850 -81.905312 74.556099 3.910442 1.434228 1.689840 -11.721148 9.974622 -0.584580 73.623413 30.358208 30.270176 132.179550 89.189644 145.583694 -12.002378 -1.398463 19.754490 
